Coordinates
version=1
nRows=10
nColumns=40
inDegrees=yes

Units are S.I. units (second, meters, Newtons, ...)
If the header above contains a line with 'inDegrees', this indicates whether rotational values are in degrees (yes) or radians (no).

endheader
time	pelvis_tilt	pelvis_list	pelvis_rotation	pelvis_tx	pelvis_ty	pelvis_tz	hip_flexion_r	hip_adduction_r	hip_rotation_r	knee_angle_r	knee_angle_r_beta	ankle_angle_r	subtalar_angle_r	mtp_angle_r	hip_flexion_l	hip_adduction_l	hip_rotation_l	knee_angle_l	knee_angle_l_beta	ankle_angle_l	subtalar_angle_l	mtp_angle_l	lumbar_extension	lumbar_bending	lumbar_rotation	arm_flex_r	arm_add_r	arm_rot_r	elbow_flex_r	pro_sup_r	wrist_flex_r	wrist_dev_r	arm_flex_l	arm_add_l	arm_rot_l	elbow_flex_l	pro_sup_l	wrist_flex_l	wrist_dev_l
      5.59000000	     47.54524614	      0.59540087	   -178.96132195	      0.45379640	      0.77244355	     -0.61236563	     82.55620413	    -10.42067511	    -11.89903264	     34.53262987	      0.60270809	      0.12071267	      0.00000000	      0.00000000	     82.18293682	     -8.33079717	     -4.22371561	     32.97961716	      0.57560291	     -1.70422554	      0.00000000	      0.00000000	    -27.52026964	      5.63136238	      4.30875206	     62.91268595	    -11.09649798	     49.88805648	      0.91425741	     85.73463721	      0.00000000	      0.00000000	     50.84955105	     -0.73505802	     63.09757842	      0.52369104	      2.34612429	      0.00000000	      0.00000000
      5.59500000	     47.47165423	      0.57948554	   -178.85289582	      0.45366203	      0.77317394	     -0.61201233	     82.39193021	    -10.54202400	    -11.94708080	     34.43612738	      0.60102380	      0.10347414	      0.00000000	      0.00000000	     82.04747186	     -8.19304899	     -4.24227291	     32.92093333	      0.57457868	     -1.76482678	      0.00000000	      0.00000000	    -27.35344501	      5.71760869	      4.21351940	     62.66961750	    -11.14789124	     49.92653983	      0.90350688	     85.73986957	      0.00000000	      0.00000000	     50.61224720	     -0.72221510	     63.13245529	      0.52611488	      2.34372496	      0.00000000	      0.00000000
      5.60000000	     47.36360836	      0.38309131	   -179.01339019	      0.45375046	      0.77422473	     -0.61214413	     82.09501041	    -10.32190806	    -11.62584702	     33.90817463	      0.59180929	     -0.23631759	      0.00000000	      0.00000000	     81.63669166	     -8.28499027	     -4.53043920	     32.45786998	      0.56649670	     -1.99412248	      0.00000000	      0.00000000	    -27.25412494	      5.47892414	      4.25924827	     62.45655263	    -11.17218824	     51.53688419	      0.91411138	     85.54078326	      0.00000000	      0.00000000	     50.05462025	     -1.09496195	     66.76928282	      0.51859753	      2.32553608	      0.00000000	      0.00000000
      5.60500000	     47.29607279	      0.39971064	   -178.88784258	      0.45357784	      0.77491191	     -0.61168343	     81.92825044	    -10.46285211	    -11.71094336	     33.81772799	      0.59023070	     -0.24441557	      0.00000000	      0.00000000	     81.49223412	     -8.14494999	     -4.58399750	     32.35918333	      0.56477429	     -2.04205805	      0.00000000	      0.00000000	    -27.05690053	      5.61216202	      4.15169386	     62.20196339	    -11.20504291	     51.51326998	      0.90650961	     85.54424890	      0.00000000	      0.00000000	     49.79356113	     -1.06529810	     66.77160057	      0.51768191	      2.32347485	      0.00000000	      0.00000000
      5.61000000	     47.14831810	      0.43752116	   -178.96471173	      0.45337407	      0.77607622	     -0.61180696	     81.51677474	    -10.31087391	    -11.85060423	     33.34924493	      0.58205413	     -0.46409579	      0.00000000	      0.00000000	     81.05728490	     -8.21901620	     -4.68937009	     31.80708437	      0.55513835	     -2.28304526	      0.00000000	      0.00000000	    -27.02085741	      5.62995359	      4.23324742	     62.03084505	    -11.23034052	     51.54118141	      0.91317134	     85.52732378	      0.00000000	      0.00000000	     49.64042205	     -1.08683576	     66.96163665	      0.52101935	      2.32118226	      0.00000000	      0.00000000
      5.61500000	     47.05179029	      0.44361050	   -178.83972485	      0.45318441	      0.77669536	     -0.61134901	     81.33503566	    -10.45007310	    -11.88001393	     33.27963921	      0.58083928	     -0.48065996	      0.00000000	      0.00000000	     80.91042983	     -8.07023177	     -4.68957801	     31.77056355	      0.55450094	     -2.33251501	      0.00000000	      0.00000000	    -26.83216521	      5.74101740	      4.12638761	     61.74981487	    -11.26753063	     51.53882282	      0.88672635	     85.53393270	      0.00000000	      0.00000000	     49.40205027	     -1.05755639	     66.96807073	      0.51834394	      2.32087341	      0.00000000	      0.00000000
      5.62000000	     46.79942917	      0.44739917	   -178.95906170	      0.45281455	      0.77800849	     -0.61150446	     80.78925790	    -10.24170139	    -11.89862354	     32.72887410	      0.57122661	     -0.72496849	      0.00000000	      0.00000000	     80.35450546	     -8.17281551	     -4.75886758	     31.25439260	      0.54549206	     -2.53917283	      0.00000000	      0.00000000	    -26.92033221	      5.72845769	      4.24282722	     61.60594815	    -11.28849624	     51.69303943	      0.90729223	     85.52881368	      0.00000000	      0.00000000	     49.23926618	     -1.07821157	     67.31254284	      0.52018529	      2.32270933	      0.00000000	      0.00000000
      5.62500000	     46.69339924	      0.44839117	   -178.85613783	      0.45267867	      0.77864323	     -0.61107493	     80.61538199	    -10.35801973	    -11.93533260	     32.65716222	      0.56997501	     -0.73960081	      0.00000000	      0.00000000	     80.20767311	     -8.04024105	     -4.75872472	     31.22405887	      0.54496263	     -2.58469652	      0.00000000	      0.00000000	    -26.73897876	      5.83392459	      4.13929190	     61.35726013	    -11.31533567	     51.71051047	      0.90171082	     85.53563176	      0.00000000	      0.00000000	     48.97535138	     -1.05951409	     67.34409385	      0.52085174	      2.32218457	      0.00000000	      0.00000000
      5.63000000	     46.50694699	      0.48961329	   -178.92579222	      0.45248288	      0.77976289	     -0.61106834	     80.16860772	    -10.22181809	    -12.03397993	     32.18761360	      0.56177984	     -0.94504726	      0.00000000	      0.00000000	     79.79196134	     -8.11350691	     -4.85303178	     30.81506232	      0.53782430	     -2.74219176	      0.00000000	      0.00000000	    -26.70382982	      5.81826723	      4.24327764	     61.12739288	    -11.39001008	     51.81356159	      0.91995801	     85.52501566	      0.00000000	      0.00000000	     48.82618501	     -1.05638079	     67.73866329	      0.51516776	      2.31740784	      0.00000000	      0.00000000
      5.63500000	     46.39872168	      0.48049482	   -178.82387570	      0.45230322	      0.78033533	     -0.61066394	     79.99426890	    -10.33266306	    -12.04021178	     32.14092894	      0.56096503	     -0.96015793	      0.00000000	      0.00000000	     79.63777079	     -7.98856551	     -4.84197631	     30.80262066	      0.53760715	     -2.78151055	      0.00000000	      0.00000000	    -26.51264503	      5.97335097	      4.12719983	     60.88518944	    -11.39189661	     51.82819694	      0.90208206	     85.53372893	      0.00000000	      0.00000000	     48.54639382	     -1.05277283	     67.76240115	      0.51798828	      2.31678643	      0.00000000	      0.00000000
